<svg width="282" height="282" viewBox="0 0 282 282" fill="none" xmlns="http://www.w3.org/2000/svg">
<g clip-path="url(#clip0_8_3)">
<rect x="-12" y="52.7048" width="250" height="250" rx="50" transform="rotate(-15 -12 52.7048)" fill="#307CFF"/>
<path d="M198.256 149.928C200.304 146.856 205.424 150.696 204.016 153.128C199.92 160.168 191.216 185 173.936 185C164.848 185 161.52 176.424 161.52 165.928C161.52 162.728 161.904 159.144 162.544 155.176C157.04 154.92 151.792 154.152 146.928 153C145.392 155.688 143.856 158.632 142.32 161.32C133.488 176.552 120.56 190.376 106.736 190.376C89.2 190.376 82.16 179.496 82.16 168.872C82.16 158.376 88.944 148.008 99.184 148.008C100.208 148.008 101.104 148.648 101.104 149.544C101.104 155.176 106.608 159.016 113.648 159.016C121.584 159.016 128.368 154.792 134.128 148.136C120.944 141.48 112.752 130.472 112.752 117.672C112.752 104.232 122.48 96.808 133.36 96.808C143.088 96.808 147.44 102.824 147.44 108.84C147.568 110.76 146.544 112.168 144.624 111.912C139.632 111.4 133.872 113.832 133.872 123.176C133.872 129.704 136.304 135.08 141.04 139.048C142.192 137.128 143.344 135.208 144.496 133.16C163.952 98.088 180.72 88.744 194.8 88.744C203.76 88.744 207.984 94.248 207.984 101.288C207.856 109.48 203.632 116.264 198.256 116.264C196.592 116.264 195.312 114.856 193.52 114.984C190.96 114.984 187.76 119.08 184.56 129.576C183.024 134.952 181.232 141.352 181.232 146.216C181.232 151.464 182.896 155.176 187.76 155.176C191.6 155.176 195.824 153.64 198.256 149.928ZM164.464 146.472C169.584 128.552 174.32 123.176 174.32 117.928C174.32 116.648 173.68 116.136 172.784 116.136C171.12 116.136 169.584 117.032 165.872 121.384C160.752 128.04 156.144 136.104 151.536 144.424C155.248 145.576 159.6 146.216 164.464 146.472Z" fill="white"/>
</g>
<defs>
<clipPath id="clip0_8_3">
<rect width="282" height="282" fill="white"/>
</clipPath>
</defs>
</svg>
